<svg width="255" height="73" viewBox="0 0 255 73" fill="none" xmlns="http://www.w3.org/2000/svg">
<mask id="mask0_70_26" style="mask-type:alpha" maskUnits="userSpaceOnUse" x="13" y="21" width="34" height="33">
<rect x="13.8945" y="21.0942" width="32.4209" height="32.4209" fill="#1CE9B6"/>
</mask>
<g mask="url(#mask0_70_26)">
<path d="M38.6966 46.5545C37.913 47.3299 36.6499 47.3251 35.8722 46.5438L32.8053 43.4623C32.134 42.7878 31.0833 42.6976 30.1988 43.0486C29.923 43.158 29.6328 43.2584 29.3282 43.3498C28.4276 43.62 27.4595 43.7551 26.4238 43.7551C23.6836 43.7551 21.3549 42.796 19.4378 40.8777C17.5209 38.9593 16.5625 36.629 16.5625 33.887C16.5625 31.1447 17.5216 28.8167 19.4398 26.903C21.3583 24.9892 23.6885 24.0323 26.4306 24.0323C29.1729 24.0323 31.5009 24.9908 33.4146 26.9077C35.3283 28.8248 36.2852 31.1535 36.2852 33.8937C36.2852 34.9519 36.1558 35.9088 35.8968 36.7643C35.8128 37.0419 35.7188 37.3088 35.6146 37.5651C35.252 38.4572 35.3252 39.5221 36.0041 40.2051L39.1079 43.3273C39.8879 44.1119 39.8827 45.3807 39.0963 46.1589L38.6966 46.5545ZM26.41 39.1621C27.9092 39.1621 29.1644 38.6612 30.1756 37.6593C31.1867 36.6574 31.6922 35.4068 31.6922 33.9076C31.6922 32.4083 31.1867 31.1531 30.1756 30.142C29.1644 29.1309 27.9092 28.6253 26.41 28.6253C24.9108 28.6253 23.6602 29.1309 22.6583 30.142C21.6564 31.1531 21.1554 32.4083 21.1554 33.9076C21.1554 35.4068 21.6564 36.6574 22.6583 37.6593C23.6602 38.6612 24.9108 39.1621 26.41 39.1621Z" fill="#17BF95"/>
</g>
<path d="M31.6083 18.6873C30.6274 17.5802 30.7206 15.8588 32.0039 15.1232C33.9042 14.0338 36.0607 13.4312 38.2792 13.3909C41.397 13.3343 44.4326 14.392 46.8402 16.3737C49.2477 18.3555 50.8692 21.1313 51.4128 24.2018C51.7997 26.3867 51.6228 28.6188 50.919 30.693C50.4438 32.0938 48.7723 32.5162 47.4973 31.7663V31.7663C46.2223 31.0165 45.8511 29.367 46.124 27.9132C46.2949 27.0028 46.3024 26.0621 46.1383 25.1357C45.817 23.321 44.8588 21.6806 43.4359 20.5094C42.0131 19.3382 40.219 18.7131 38.3765 18.7465C37.4358 18.7636 36.514 18.9518 35.6535 19.2945C34.2793 19.8417 32.5892 19.7944 31.6083 18.6873V18.6873Z" fill="#17BF95"/>
<circle cx="44.6817" cy="18.7831" r="4.62224" fill="#4FF7CE"/>
<path d="M31.6083 54.3126C30.6274 55.4198 30.7206 57.1412 32.0039 57.8768C33.9042 58.9661 36.0607 59.5687 38.2792 59.609C41.397 59.6657 44.4326 58.608 46.8402 56.6262C49.2477 54.6444 50.8692 51.8687 51.4128 48.7981C51.7997 46.6133 51.6228 44.3812 50.919 42.3069C50.4438 40.9062 48.7723 40.4838 47.4973 41.2336V41.2336C46.2223 41.9834 45.8511 43.633 46.124 45.0867C46.2949 45.9971 46.3024 46.9379 46.1383 47.8642C45.817 49.6789 44.8588 51.3194 43.4359 52.4906C42.0131 53.6618 40.219 54.2869 38.3765 54.2534C37.4358 54.2363 36.514 54.0482 35.6535 53.7055C34.2793 53.1582 32.5892 53.2055 31.6083 54.3126V54.3126Z" fill="#17BF95"/>
<circle cx="4.62224" cy="4.62224" r="4.62224" transform="matrix(1 0 0 -1 40.0594 58.8392)" fill="#4FF7CE"/>
<path d="M25.3961 54.3126C26.377 55.4198 26.2837 57.1412 25.0004 57.8768C23.1001 58.9661 20.9436 59.5687 18.7252 59.609C15.6074 59.6657 12.5717 58.608 10.1642 56.6262C7.75661 54.6444 6.13518 51.8687 5.59152 48.7981C5.20467 46.6133 5.38158 44.3812 6.08534 42.3069C6.56058 40.9062 8.23199 40.4838 9.50701 41.2336V41.2336C10.782 41.9834 11.1533 43.633 10.8803 45.0867C10.7094 45.9971 10.702 46.9379 10.866 47.8642C11.1873 49.6789 12.1455 51.3194 13.5684 52.4906C14.9912 53.6618 16.7853 54.2869 18.6279 54.2534C19.5685 54.2363 20.4903 54.0482 21.3508 53.7055C22.725 53.1582 24.4152 53.2055 25.3961 54.3126V54.3126Z" fill="#17BF95"/>
<circle cx="12.3226" cy="54.2169" r="4.62224" transform="rotate(180 12.3226 54.2169)" fill="#4FF7CE"/>
<path d="M25.3961 18.6873C26.377 17.5802 26.2837 15.8588 25.0004 15.1232C23.1001 14.0338 20.9436 13.4312 18.7252 13.3909C15.6074 13.3343 12.5717 14.392 10.1642 16.3737C7.75661 18.3555 6.13518 21.1313 5.59152 24.2018C5.20467 26.3867 5.38158 28.6188 6.08534 30.693C6.56058 32.0938 8.23199 32.5162 9.50701 31.7663V31.7663C10.782 31.0165 11.1533 29.367 10.8803 27.9132C10.7094 27.0028 10.702 26.0621 10.866 25.1357C11.1873 23.321 12.1455 21.6806 13.5684 20.5094C14.9912 19.3382 16.7853 18.7131 18.6279 18.7465C19.5685 18.7636 20.4903 18.9518 21.3508 19.2945C22.725 19.8417 24.4152 19.7944 25.3961 18.6873V18.6873Z" fill="#17BF95"/>
<circle cx="4.62224" cy="4.62224" r="4.62224" transform="matrix(-1 0 0 1 16.9449 14.1608)" fill="#4FF7CE"/>
<path d="M78.4203 50V35.544L65.4203 13.6H74.3123L82.2683 28.264L90.1723 13.6H99.0643L86.0643 35.544V50H78.4203ZM108.117 50.468C104.685 50.468 101.825 49.1853 99.5371 46.62C97.2491 44.0547 96.1051 40.8827 96.1051 37.104C96.1051 33.3253 97.2491 30.1707 99.5371 27.64C101.825 25.0747 104.685 23.792 108.117 23.792C111.688 23.792 114.513 25.0227 116.593 27.484V24.26H123.873V50H116.593V46.776C114.478 49.2373 111.653 50.468 108.117 50.468ZM105.205 42.096C106.488 43.4133 108.065 44.072 109.937 44.072C111.809 44.072 113.386 43.4133 114.669 42.096C115.952 40.744 116.593 39.08 116.593 37.104C116.593 35.128 115.952 33.4813 114.669 32.164C113.386 30.812 111.809 30.136 109.937 30.136C108.065 30.136 106.488 30.7947 105.205 32.112C103.957 33.4293 103.333 35.0933 103.333 37.104C103.333 39.1147 103.957 40.7787 105.205 42.096ZM129.745 50V24.26H137.025V27.328C139.036 24.9707 141.584 23.792 144.669 23.792C148.032 23.792 150.718 24.9187 152.729 27.172C154.774 29.4253 155.797 32.58 155.797 36.636V50H148.517V37.26C148.517 34.9373 147.997 33.152 146.957 31.904C145.952 30.656 144.6 30.032 142.901 30.032C141.098 30.032 139.66 30.6907 138.585 32.008C137.545 33.3253 137.025 35.128 137.025 37.416V50H129.745ZM171.832 50.468C168.4 50.468 165.54 49.1853 163.252 46.62C160.964 44.0547 159.82 40.8827 159.82 37.104C159.82 33.3253 160.964 30.1707 163.252 27.64C165.54 25.0747 168.4 23.792 171.832 23.792C175.403 23.792 178.228 25.0227 180.308 27.484V24.26H187.588V50H180.308V46.776C178.193 49.2373 175.368 50.468 171.832 50.468ZM168.92 42.096C170.203 43.4133 171.78 44.072 173.652 44.072C175.524 44.072 177.101 43.4133 178.384 42.096C179.667 40.744 180.308 39.08 180.308 37.104C180.308 35.128 179.667 33.4813 178.384 32.164C177.101 30.812 175.524 30.136 173.652 30.136C171.78 30.136 170.203 30.7947 168.92 32.112C167.672 33.4293 167.048 35.0933 167.048 37.104C167.048 39.1147 167.672 40.7787 168.92 42.096ZM193.46 63V24.26H200.74V27.536C202.889 25.04 205.714 23.792 209.216 23.792C212.648 23.792 215.508 25.0747 217.796 27.64C220.084 30.1707 221.228 33.3427 221.228 37.156C221.228 40.9 220.084 44.0547 217.796 46.62C215.508 49.1853 212.648 50.468 209.216 50.468C205.749 50.468 202.924 49.22 200.74 46.724V63H193.46ZM202.664 42.096C203.946 43.4133 205.524 44.072 207.396 44.072C209.268 44.072 210.828 43.4133 212.076 42.096C213.324 40.7787 213.948 39.132 213.948 37.156C213.948 35.1453 213.324 33.4813 212.076 32.164C210.828 30.812 209.268 30.136 207.396 30.136C205.524 30.136 203.946 30.812 202.664 32.164C201.381 33.4813 200.74 35.1453 200.74 37.156C200.74 39.132 201.381 40.7787 202.664 42.096ZM236.359 50.468C232.927 50.468 230.067 49.1853 227.779 46.62C225.491 44.0547 224.347 40.8827 224.347 37.104C224.347 33.3253 225.491 30.1707 227.779 27.64C230.067 25.0747 232.927 23.792 236.359 23.792C239.93 23.792 242.755 25.0227 244.835 27.484V24.26H252.115V50H244.835V46.776C242.721 49.2373 239.895 50.468 236.359 50.468ZM233.447 42.096C234.73 43.4133 236.307 44.072 238.179 44.072C240.051 44.072 241.629 43.4133 242.911 42.096C244.194 40.744 244.835 39.08 244.835 37.104C244.835 35.128 244.194 33.4813 242.911 32.164C241.629 30.812 240.051 30.136 238.179 30.136C236.307 30.136 234.73 30.7947 233.447 32.112C232.199 33.4293 231.575 35.0933 231.575 37.104C231.575 39.1147 232.199 40.7787 233.447 42.096Z" fill="#17BF95"/>
</svg>
