<svg width="190" height="145" viewBox="0 0 190 145" fill="none" xmlns="http://www.w3.org/2000/svg">
<path d="M13.416 122V107.544L0.416 85.6H9.308L17.264 100.264L25.168 85.6H34.06L21.06 107.544V122H13.416ZM43.1128 122.468C39.6808 122.468 36.8208 121.185 34.5328 118.62C32.2448 116.055 31.1008 112.883 31.1008 109.104C31.1008 105.325 32.2448 102.171 34.5328 99.64C36.8208 97.0747 39.6808 95.792 43.1128 95.792C46.6834 95.792 49.5088 97.0227 51.5888 99.484V96.26H58.8688V122H51.5888V118.776C49.4741 121.237 46.6488 122.468 43.1128 122.468ZM40.2008 114.096C41.4834 115.413 43.0608 116.072 44.9328 116.072C46.8048 116.072 48.3821 115.413 49.6648 114.096C50.9474 112.744 51.5888 111.08 51.5888 109.104C51.5888 107.128 50.9474 105.481 49.6648 104.164C48.3821 102.812 46.8048 102.136 44.9328 102.136C43.0608 102.136 41.4834 102.795 40.2008 104.112C38.9528 105.429 38.3288 107.093 38.3288 109.104C38.3288 111.115 38.9528 112.779 40.2008 114.096ZM64.7406 122V96.26H72.0206V99.328C74.0313 96.9707 76.5793 95.792 79.6646 95.792C83.0273 95.792 85.714 96.9187 87.7246 99.172C89.77 101.425 90.7926 104.58 90.7926 108.636V122H83.5126V109.26C83.5126 106.937 82.9926 105.152 81.9526 103.904C80.9473 102.656 79.5953 102.032 77.8966 102.032C76.094 102.032 74.6553 102.691 73.5806 104.008C72.5406 105.325 72.0206 107.128 72.0206 109.416V122H64.7406ZM106.828 122.468C103.396 122.468 100.536 121.185 98.2476 118.62C95.9596 116.055 94.8156 112.883 94.8156 109.104C94.8156 105.325 95.9596 102.171 98.2476 99.64C100.536 97.0747 103.396 95.792 106.828 95.792C110.398 95.792 113.224 97.0227 115.304 99.484V96.26H122.584V122H115.304V118.776C113.189 121.237 110.364 122.468 106.828 122.468ZM103.916 114.096C105.198 115.413 106.776 116.072 108.648 116.072C110.52 116.072 112.097 115.413 113.38 114.096C114.662 112.744 115.304 111.08 115.304 109.104C115.304 107.128 114.662 105.481 113.38 104.164C112.097 102.812 110.52 102.136 108.648 102.136C106.776 102.136 105.198 102.795 103.916 104.112C102.668 105.429 102.044 107.093 102.044 109.104C102.044 111.115 102.668 112.779 103.916 114.096ZM128.455 135V96.26H135.735V99.536C137.885 97.04 140.71 95.792 144.211 95.792C147.643 95.792 150.503 97.0747 152.791 99.64C155.079 102.171 156.223 105.343 156.223 109.156C156.223 112.9 155.079 116.055 152.791 118.62C150.503 121.185 147.643 122.468 144.211 122.468C140.745 122.468 137.919 121.22 135.735 118.724V135H128.455ZM137.659 114.096C138.942 115.413 140.519 116.072 142.391 116.072C144.263 116.072 145.823 115.413 147.071 114.096C148.319 112.779 148.943 111.132 148.943 109.156C148.943 107.145 148.319 105.481 147.071 104.164C145.823 102.812 144.263 102.136 142.391 102.136C140.519 102.136 138.942 102.812 137.659 104.164C136.377 105.481 135.735 107.145 135.735 109.156C135.735 111.132 136.377 112.779 137.659 114.096ZM171.355 122.468C167.923 122.468 165.063 121.185 162.775 118.62C160.487 116.055 159.343 112.883 159.343 109.104C159.343 105.325 160.487 102.171 162.775 99.64C165.063 97.0747 167.923 95.792 171.355 95.792C174.926 95.792 177.751 97.0227 179.831 99.484V96.26H187.111V122H179.831V118.776C177.716 121.237 174.891 122.468 171.355 122.468ZM168.443 114.096C169.726 115.413 171.303 116.072 173.175 116.072C175.047 116.072 176.624 115.413 177.907 114.096C179.19 112.744 179.831 111.08 179.831 109.104C179.831 107.128 179.19 105.481 177.907 104.164C176.624 102.812 175.047 102.136 173.175 102.136C171.303 102.136 169.726 102.795 168.443 104.112C167.195 105.429 166.571 107.093 166.571 109.104C166.571 111.115 167.195 112.779 168.443 114.096Z" fill="#17BF95"/>
<mask id="mask0_7_133" style="mask-type:alpha" maskUnits="userSpaceOnUse" x="75" y="18" width="46" height="46">
<rect x="75.2548" y="18.1487" width="44.9284" height="44.9284" fill="#1CE9B6"/>
</mask>
<g mask="url(#mask0_7_133)">
<path d="M109.078 53.9724C108.295 54.7477 107.031 54.7429 106.254 53.9616L101.016 48.6988C100.345 48.0243 99.2955 47.9312 98.4296 48.3258C97.8802 48.5762 97.2845 48.7977 96.6426 48.9902C95.3945 49.3646 94.0529 49.5518 92.6177 49.5518C88.8203 49.5518 85.5933 48.2227 82.9366 45.5644C80.2802 42.9059 78.952 39.6766 78.952 35.8768C78.952 32.0766 80.2811 28.8505 82.9394 26.1984C85.598 23.5464 88.8272 22.2204 92.6271 22.2204C96.4273 22.2204 99.6534 23.5486 102.305 26.205C104.957 28.8617 106.283 32.0887 106.283 35.8861C106.283 37.3525 106.104 38.6785 105.745 39.8642C105.563 40.4658 105.347 41.0312 105.097 41.5605C104.685 42.431 104.763 43.4949 105.442 44.1778L110.74 49.5075C111.52 50.2921 111.515 51.5609 110.729 52.3391L109.078 53.9724ZM92.5985 43.187C94.6762 43.187 96.4156 42.4928 97.8168 41.1044C99.218 39.716 99.9186 37.9829 99.9186 35.9053C99.9186 33.8277 99.218 32.0883 97.8168 30.6871C96.4156 29.2859 94.6762 28.5853 92.5985 28.5853C90.5209 28.5853 88.7879 29.2859 87.3995 30.6871C86.0111 32.0883 85.3168 33.8277 85.3168 35.9053C85.3168 37.9829 86.0111 39.716 87.3995 41.1044C88.7879 42.4928 90.5209 43.187 92.5985 43.187Z" fill="#17BF95"/>
</g>
<path d="M99.8022 14.8134C98.4429 13.2791 98.5721 10.8936 100.35 9.87419C102.984 8.36464 105.972 7.52953 109.047 7.47369C113.367 7.3952 117.574 8.86093 120.91 11.6072C124.247 14.3535 126.494 18.2001 127.247 22.4552C127.783 25.483 127.538 28.5762 126.563 31.4507C125.904 33.3918 123.588 33.9771 121.821 32.938V32.938C120.054 31.8989 119.54 29.613 119.918 27.5984C120.155 26.3369 120.165 25.0332 119.938 23.7494C119.492 21.2347 118.165 18.9614 116.193 17.3383C114.221 15.7153 111.735 14.849 109.181 14.8954C107.878 14.9191 106.601 15.1798 105.408 15.6547C103.504 16.4131 101.162 16.3476 99.8022 14.8134V14.8134Z" fill="#17BF95"/>
<circle cx="117.919" cy="14.946" r="6.40543" fill="#4FF7CE"/>
<path d="M99.8022 64.1823C98.4429 65.7166 98.5721 68.1021 100.35 69.1215C102.984 70.631 105.972 71.4661 109.047 71.522C113.367 71.6005 117.574 70.1347 120.91 67.3884C124.247 64.6421 126.494 60.7955 127.247 56.5404C127.783 53.5127 127.538 50.4195 126.563 47.545C125.904 45.6039 123.588 45.0185 121.821 46.0576V46.0576C120.054 47.0967 119.54 49.3826 119.918 51.3972C120.155 52.6588 120.165 53.9625 119.938 55.2463C119.492 57.761 118.165 60.0343 116.193 61.6573C114.221 63.2804 111.735 64.1466 109.181 64.1002C107.878 64.0766 106.601 63.8158 105.408 63.3409C103.504 62.5826 101.162 62.6481 99.8022 64.1823V64.1823Z" fill="#17BF95"/>
<circle cx="6.40543" cy="6.40543" r="6.40543" transform="matrix(1 0 0 -1 111.514 70.4551)" fill="#4FF7CE"/>
<path d="M91.1935 64.1823C92.5528 65.7166 92.4236 68.1021 90.6452 69.1215C88.0118 70.631 85.0234 71.4661 81.949 71.522C77.6285 71.6005 73.4217 70.1347 70.0853 67.3884C66.749 64.6421 64.502 60.7955 63.7486 56.5404C63.2125 53.5127 63.4577 50.4195 64.433 47.545C65.0915 45.6039 67.4078 45.0185 69.1747 46.0576V46.0576C70.9416 47.0967 71.456 49.3826 71.0778 51.3972C70.841 52.6588 70.8306 53.9625 71.0579 55.2463C71.5032 57.761 72.8311 60.0343 74.8029 61.6573C76.7746 63.2804 79.2608 64.1466 81.8142 64.1002C83.1177 64.0766 84.3951 63.8158 85.5876 63.3409C87.492 62.5826 89.8341 62.6481 91.1935 64.1823V64.1823Z" fill="#17BF95"/>
<circle cx="73.0765" cy="64.0497" r="6.40543" transform="rotate(180 73.0765 64.0497)" fill="#4FF7CE"/>
<path d="M91.1935 14.8134C92.5528 13.2791 92.4236 10.8936 90.6452 9.87419C88.0118 8.36464 85.0234 7.52953 81.949 7.47369C77.6285 7.3952 73.4217 8.86093 70.0853 11.6072C66.749 14.3535 64.502 18.2001 63.7486 22.4552C63.2125 25.483 63.4577 28.5762 64.433 31.4507C65.0915 33.3918 67.4078 33.9771 69.1747 32.938V32.938C70.9416 31.8989 71.456 29.613 71.0778 27.5984C70.841 26.3369 70.8306 25.0332 71.0579 23.7494C71.5032 21.2347 72.8311 18.9614 74.8029 17.3383C76.7746 15.7153 79.2608 14.849 81.8142 14.8954C83.1177 14.9191 84.3951 15.1798 85.5876 15.6547C87.492 16.4131 89.8341 16.3476 91.1935 14.8134V14.8134Z" fill="#17BF95"/>
<circle cx="6.40543" cy="6.40543" r="6.40543" transform="matrix(-1 0 0 1 79.4819 8.54057)" fill="#4FF7CE"/>
</svg>
