<svg width="25" height="25" viewBox="0 0 25 25" fill="none" xmlns="http://www.w3.org/2000/svg">
<mask id="mask0_48_149" style="mask-type:alpha" maskUnits="userSpaceOnUse" x="0" y="0" width="25" height="25">
<rect x="0.174362" y="0.63649" width="24" height="24" fill="#D9D9D9"/>
</mask>
<g mask="url(#mask0_48_149)">
<path d="M7.17436 17.6365C7.4577 17.6365 7.6952 17.5407 7.88686 17.349C8.07853 17.1573 8.17436 16.9198 8.17436 16.6365C8.17436 16.3532 8.07853 16.1157 7.88686 15.924C7.6952 15.7323 7.4577 15.6365 7.17436 15.6365C6.89103 15.6365 6.65353 15.7323 6.46186 15.924C6.2702 16.1157 6.17436 16.3532 6.17436 16.6365C6.17436 16.9198 6.2702 17.1573 6.46186 17.349C6.65353 17.5407 6.89103 17.6365 7.17436 17.6365ZM6.17436 13.6365H8.17436V7.63649H6.17436V13.6365ZM11.1744 17.6365H18.1744V15.6365H11.1744V17.6365ZM11.1744 13.6365H18.1744V11.6365H11.1744V13.6365ZM11.1744 9.63649H18.1744V7.63649H11.1744V9.63649ZM4.17436 21.6365C3.62436 21.6365 3.15353 21.4407 2.76186 21.049C2.3702 20.6573 2.17436 20.1865 2.17436 19.6365V5.63649C2.17436 5.08649 2.3702 4.61566 2.76186 4.22399C3.15353 3.83232 3.62436 3.63649 4.17436 3.63649H20.1744C20.7244 3.63649 21.1952 3.83232 21.5869 4.22399C21.9785 4.61566 22.1744 5.08649 22.1744 5.63649V19.6365C22.1744 20.1865 21.9785 20.6573 21.5869 21.049C21.1952 21.4407 20.7244 21.6365 20.1744 21.6365H4.17436ZM4.17436 19.6365H20.1744V5.63649H4.17436V19.6365Z" fill="#17BF95"/>
</g>
</svg>
